<svg width="256" height="256" viewBox="0 0 256 256" fill="none" xmlns="http://www.w3.org/2000/svg">
<rect width="256" height="256" fill="#90D9C5"/>
<path d="M139.573 44.5918C124.104 44.5918 111.058 55.7297 111.058 69.9824C111.058 77.1816 114.389 83.584 119.677 88.1594L122.987 81.6477C119.91 78.4437 118.089 74.3559 118.089 69.9824C118.089 60.0723 127.428 51.623 139.573 51.623C151.718 51.623 161.057 60.0723 161.057 69.9824C161.057 76.7805 156.662 82.891 149.981 86.0582L147.058 94.4785C147.796 94.2998 148.528 94.094 149.251 93.8613L152.828 100.116C148.794 102.954 144.891 106.47 140.705 110.848L172.483 180.923C192.118 181.828 211.062 171.417 220.824 154.356L178.703 89.9668C170.826 91.5398 164.488 93.5035 158.83 96.4504L155.67 90.9254C163.114 86.3883 168.089 78.7809 168.089 69.9828C168.089 55.7301 155.043 44.5922 139.573 44.5922V44.5918ZM91.657 46.9148C90.6179 46.9266 89.5265 47.0984 88.4726 47.4414C86.0625 48.2242 84.0234 49.8375 83.1367 51.5781L83.0242 51.8008L57.671 87.8543C56.8371 89.5934 56.7406 92.1305 57.4925 94.4832C58.2621 96.8883 59.8539 98.8992 61.4777 99.7262L117.603 128.304C119.194 129.115 121.74 129.244 124.107 128.471C126.429 127.713 128.402 126.172 129.342 124.373L139.248 95.3648L139.307 95.3664L141.778 88.2453C141.745 88.2484 141.71 88.2492 141.677 88.2523L143.593 82.641L143.706 82.4191C144.593 80.6785 144.698 78.0754 143.921 75.6684C143.144 73.2613 141.538 71.2328 139.845 70.3707L127.315 63.9906C124.759 67.1852 123.975 71.7516 127.18 76.0492L128.004 77.4289L132.023 79.5383L128.798 85.8719L128.741 85.8445L125.569 92.0828L125.622 92.1082L123.16 96.9426L83.4765 76.7363L90.7445 62.4637L92.339 59.3309L104.391 65.4684C104.999 61.6363 106.314 57.9496 108.428 54.373L95.2277 47.6523C94.2457 47.1523 92.9929 46.9004 91.657 46.9148ZM176.785 98.2351L186.192 115.352L158.12 130.778L150.406 116.743L148.713 113.662L176.785 98.2351ZM174.009 107.784L158.262 116.437L160.896 121.23L176.643 112.577L174.009 107.784ZM72.7265 113.345L64.5742 129.357L91.7257 143.182L99.8792 127.17L72.7265 113.345ZM188.826 120.145L198.232 137.261L170.16 152.687L162.448 138.652L160.755 135.571L188.827 120.145L188.826 120.145ZM186.05 129.693L170.302 138.347L172.937 143.14L188.684 134.486L186.05 129.693ZM66.9531 138.459H66.9523L35.1765 200.863L37.5683 208.219L67.7496 148.946L74.0144 152.137L43.8339 211.409L52.5742 208.567L57.6398 206.92L54.9109 198.499L63.3078 195.777L60.5749 187.375L68.9812 184.641L66.8835 178.195L82.9656 146.612L66.9531 138.459Z" fill="#022C37"/>
</svg>
