<svg width="256" height="256" viewBox="0 0 256 256" fill="none" xmlns="http://www.w3.org/2000/svg">
<rect width="256" height="256" rx="32" fill="#003855"/>
<path d="M109.567 43.0156C101.286 44.8594 93.0937 47.4156 85.4156 51.2844C85.5922 58.0656 86.0328 64.5594 86.9172 71.1594C83.9391 73.0688 80.8016 74.7109 78.0188 76.9438C75.1859 79.1234 72.3 81.2047 69.7359 83.7562C64.5507 80.3172 59.1686 77.1848 53.6172 74.375C47.5984 80.85 41.9688 87.8391 37.375 95.6641C40.9891 101.334 44.8641 107.028 48.4469 111.472V159.477C48.5375 159.477 48.625 159.48 48.7094 159.487L78.1406 162.328C78.8859 162.401 79.5815 162.735 80.1043 163.271C80.627 163.807 80.9432 164.511 80.9969 165.258L81.9062 178.252L107.572 180.083L109.342 168.095C109.453 167.343 109.831 166.655 110.406 166.158C110.982 165.66 111.717 165.386 112.478 165.386H143.522C144.283 165.386 145.018 165.66 145.594 166.158C146.169 166.655 146.547 167.343 146.658 168.095L148.428 180.083L174.1 178.252L175.003 165.258C175.057 164.511 175.373 163.807 175.896 163.271C176.418 162.735 177.114 162.401 177.859 162.328L207.278 159.489C207.364 159.482 207.451 159.478 207.541 159.478V155.641H207.553V111.469C211.697 106.258 215.616 100.502 218.625 95.6625C214.03 87.8375 208.402 80.85 202.383 74.3734C196.831 77.1832 191.449 80.3156 186.264 83.7547C183.702 81.2031 180.814 79.1219 177.983 76.9422C175.198 74.7078 172.061 73.0672 169.083 71.1563C169.967 64.5578 170.408 58.0641 170.583 51.2828C162.906 47.4141 154.716 44.8563 146.433 43.0125C143.125 48.5734 140.097 54.5906 137.467 60.475C134.342 59.9563 131.205 59.7609 128.061 59.725V59.7187L128 59.725C127.975 59.7281 127.964 59.7187 127.937 59.7187V59.725C124.797 59.7609 121.658 59.9563 118.533 60.475C115.903 54.5922 112.877 48.5734 109.567 43.0125V43.0156ZM86.2828 113.234C96.0797 113.234 104.019 121.17 104.019 130.961C104.019 140.758 96.0781 148.697 86.2828 148.697C76.4922 148.697 68.5516 140.756 68.5516 130.961C68.5516 121.17 76.4922 113.234 86.2828 113.234ZM169.717 113.234C179.508 113.234 187.448 121.17 187.448 130.961C187.448 140.758 179.508 148.697 169.717 148.697C159.92 148.697 151.981 140.756 151.981 130.961C151.981 121.17 159.922 113.234 169.717 113.234ZM128 123.608C131.15 123.608 133.712 125.933 133.712 128.795V145.122C133.712 147.984 131.15 150.309 128 150.309C124.844 150.309 122.294 147.984 122.294 145.122V128.794C122.294 125.933 124.844 123.608 128 123.608Z" fill="#E0E6FF"/>
<path d="M181.137 168.375L180.228 181.437C180.175 182.199 179.848 182.915 179.308 183.454C178.769 183.994 178.052 184.319 177.291 184.372L145.944 186.613C145.872 186.619 145.792 186.619 145.719 186.619C144.162 186.619 142.812 185.478 142.587 183.916L140.787 171.719H115.212L113.412 183.914C113.297 184.704 112.886 185.421 112.264 185.922C111.641 186.422 110.853 186.669 110.056 186.613L78.7078 184.372C77.9466 184.319 77.2301 183.993 76.6906 183.453C76.151 182.914 75.8247 182.197 75.7719 181.436L74.8625 168.373L48.3984 165.823C48.4109 168.667 48.4453 171.786 48.4453 172.403C48.4453 200.352 83.9016 213.784 127.945 213.938H128.055C172.098 213.784 207.541 200.352 207.541 172.403C207.541 171.775 207.578 168.669 207.589 165.823L181.137 168.375ZM99.7531 132.009C99.7535 133.555 99.4492 135.086 98.8577 136.515C98.2661 137.943 97.3988 139.241 96.3054 140.334C95.212 141.427 93.9139 142.293 92.4853 142.884C91.0567 143.475 89.5257 143.779 87.9797 143.778C84.8579 143.779 81.8637 142.539 79.6558 140.332C77.4479 138.125 76.2071 135.131 76.2062 132.009C76.2079 128.888 77.4491 125.895 79.6569 123.689C81.8647 121.483 84.8584 120.243 87.9797 120.244C89.5254 120.243 91.0562 120.546 92.4846 121.137C93.913 121.728 95.2109 122.594 96.3043 123.687C97.3977 124.78 98.265 126.077 98.8568 127.505C99.4485 128.933 99.7531 130.464 99.7531 132.009ZM156.247 132.009C156.246 133.555 156.551 135.085 157.142 136.513C157.733 137.941 158.6 139.239 159.692 140.331C160.785 141.424 162.082 142.291 163.51 142.883C164.938 143.474 166.469 143.778 168.014 143.778C171.135 143.778 174.128 142.538 176.335 140.331C178.542 138.124 179.782 135.131 179.782 132.01C179.782 128.889 178.542 125.896 176.335 123.689C174.128 121.482 171.135 120.242 168.014 120.242C166.469 120.242 164.939 120.547 163.511 121.138C162.084 121.729 160.787 122.596 159.694 123.689C158.601 124.782 157.735 126.079 157.144 127.506C156.552 128.934 156.247 130.464 156.247 132.009Z" fill="#E0E6FF"/>
</svg>
