<svg width="256" height="256" viewBox="0 0 256 256" fill="none" xmlns="http://www.w3.org/2000/svg">
<rect width="256" height="256" rx="32" fill="#003639"/>
<path d="M96.75 142.583H75.9167C66.7119 142.583 59.25 150.045 59.25 159.25V180.083C59.25 189.288 66.7119 196.75 75.9167 196.75H96.75C105.955 196.75 113.417 189.288 113.417 180.083V159.25C113.417 150.045 105.955 142.583 96.75 142.583Z" stroke="#DBE8E8" stroke-width="12.5" stroke-linecap="round" stroke-linejoin="round"/>
<path d="M180.083 142.583H159.25C150.045 142.583 142.583 150.045 142.583 159.25V180.083C142.583 189.288 150.045 196.75 159.25 196.75H180.083C189.288 196.75 196.75 189.288 196.75 180.083V159.25C196.75 150.045 189.288 142.583 180.083 142.583Z" stroke="#DBE8E8" stroke-width="12.5" stroke-linecap="round" stroke-linejoin="round"/>
<path d="M96.75 59.25H75.9167C66.7119 59.25 59.25 66.7119 59.25 75.9167V96.75C59.25 105.955 66.7119 113.417 75.9167 113.417H96.75C105.955 113.417 113.417 105.955 113.417 96.75V75.9167C113.417 66.7119 105.955 59.25 96.75 59.25Z" stroke="#DBE8E8" stroke-width="12.5" stroke-linecap="round" stroke-linejoin="round"/>
<path d="M180.083 59.25H159.25C150.045 59.25 142.583 66.7119 142.583 75.9167V96.75C142.583 105.955 150.045 113.417 159.25 113.417H180.083C189.288 113.417 196.75 105.955 196.75 96.75V75.9167C196.75 66.7119 189.288 59.25 180.083 59.25Z" stroke="#DBE8E8" stroke-width="12.5" stroke-linecap="round" stroke-linejoin="round"/>
</svg>
