<svg width="256" height="256" viewBox="0 0 256 256" fill="none" xmlns="http://www.w3.org/2000/svg">
<rect width="256" height="256" fill="#FFC7EF"/>
<path d="M29.62 161C28.916 161 28.34 160.776 27.892 160.328C27.444 159.88 27.22 159.304 27.22 158.6V96.2C27.22 95.496 27.444 94.92 27.892 94.472C28.34 94.024 28.916 93.8 29.62 93.8H42.004C42.708 93.8 43.284 94.024 43.732 94.472C44.18 94.92 44.404 95.496 44.404 96.2V119.336H68.116V96.2C68.116 95.496 68.34 94.92 68.788 94.472C69.236 94.024 69.812 93.8 70.516 93.8H82.9C83.604 93.8 84.18 94.024 84.628 94.472C85.076 94.92 85.3 95.496 85.3 96.2V158.6C85.3 159.304 85.076 159.88 84.628 160.328C84.18 160.776 83.604 161 82.9 161H70.516C69.812 161 69.236 160.776 68.788 160.328C68.34 159.88 68.116 159.304 68.116 158.6V134.696H44.404V158.6C44.404 159.304 44.18 159.88 43.732 160.328C43.284 160.776 42.708 161 42.004 161H29.62ZM123.807 161.96C117.407 161.96 112.095 161.064 107.871 159.272C103.647 157.416 100.447 155.016 98.2713 152.072C96.0953 149.128 94.9433 145.992 94.8153 142.664C94.8153 142.152 95.0073 141.704 95.3913 141.32C95.8393 140.872 96.3513 140.648 96.9273 140.648H109.023C109.919 140.648 110.591 140.808 111.039 141.128C111.551 141.448 111.999 141.864 112.383 142.376C112.895 143.336 113.599 144.264 114.495 145.16C115.455 146.056 116.671 146.792 118.143 147.368C119.679 147.88 121.567 148.136 123.807 148.136C127.519 148.136 130.303 147.56 132.159 146.408C134.079 145.256 135.039 143.688 135.039 141.704C135.039 140.296 134.527 139.144 133.503 138.248C132.479 137.288 130.815 136.456 128.511 135.752C126.271 134.984 123.263 134.216 119.487 133.448C114.623 132.424 110.463 131.112 107.007 129.512C103.615 127.848 101.023 125.704 99.2313 123.08C97.4393 120.392 96.5433 117.064 96.5433 113.096C96.5433 109.192 97.6313 105.704 99.8073 102.632C102.047 99.56 105.151 97.16 109.119 95.432C113.087 93.704 117.791 92.84 123.231 92.84C127.647 92.84 131.519 93.416 134.847 94.568C138.239 95.72 141.087 97.256 143.391 99.176C145.695 101.096 147.423 103.144 148.575 105.32C149.791 107.432 150.431 109.512 150.495 111.56C150.495 112.072 150.303 112.552 149.919 113C149.535 113.384 149.055 113.576 148.479 113.576H135.807C135.103 113.576 134.495 113.448 133.983 113.192C133.471 112.936 133.023 112.52 132.639 111.944C132.255 110.536 131.231 109.32 129.567 108.296C127.967 107.208 125.855 106.664 123.231 106.664C120.415 106.664 118.207 107.176 116.607 108.2C115.071 109.16 114.303 110.664 114.303 112.712C114.303 113.992 114.719 115.112 115.551 116.072C116.447 117.032 117.887 117.864 119.871 118.568C121.919 119.272 124.703 120.008 128.223 120.776C134.047 121.864 138.751 123.24 142.335 124.904C145.919 126.504 148.543 128.616 150.207 131.24C151.871 133.8 152.703 137.032 152.703 140.936C152.703 145.288 151.455 149.064 148.959 152.264C146.527 155.4 143.135 157.8 138.783 159.464C134.431 161.128 129.439 161.96 123.807 161.96ZM164.714 161C164.074 161 163.498 160.776 162.986 160.328C162.538 159.88 162.314 159.304 162.314 158.6V96.2C162.314 95.496 162.538 94.92 162.986 94.472C163.498 94.024 164.074 93.8 164.714 93.8H175.082C176.106 93.8 176.874 94.088 177.386 94.664C177.962 95.176 178.314 95.592 178.442 95.912L195.338 126.248L212.234 95.912C212.426 95.592 212.746 95.176 213.194 94.664C213.706 94.088 214.506 93.8 215.594 93.8H225.866C226.57 93.8 227.146 94.024 227.594 94.472C228.106 94.92 228.362 95.496 228.362 96.2V158.6C228.362 159.304 228.106 159.88 227.594 160.328C227.146 160.776 226.57 161 225.866 161H214.442C213.738 161 213.13 160.776 212.618 160.328C212.17 159.88 211.946 159.304 211.946 158.6V122.6L201.098 142.664C200.842 143.24 200.458 143.752 199.946 144.2C199.434 144.648 198.73 144.872 197.834 144.872H192.842C191.946 144.872 191.242 144.648 190.73 144.2C190.218 143.752 189.802 143.24 189.482 142.664L178.634 122.6V158.6C178.634 159.304 178.41 159.88 177.962 160.328C177.514 160.776 176.938 161 176.234 161H164.714Z" fill="#19191B"/>
</svg>
