<?xml version="1.0" encoding="utf-8" ?>
<svg baseProfile="tiny" height="499" version="1.2" viewBox="0 0 977 499" width="977" xmlns="http://www.w3.org/2000/svg" xmlns:ev="http://www.w3.org/2001/xml-events" xmlns:xlink="http://www.w3.org/1999/xlink"><defs /><path d="M 495.00 116.00 C 494.83 115.17 494.50 114.33 493.00 114.00 C 491.50 113.67 487.33 114.17 486.00 114.00 C 484.67 113.83 485.67 113.17 485.00 113.00 C 484.33 112.83 482.67 113.17 482.00 113.00 C 481.33 112.83 481.83 112.17 481.00 112.00 C 480.17 111.83 478.67 110.83 477.00 112.00 C 475.33 113.17 472.67 117.67 471.00 119.00 C 469.33 120.33 468.33 119.17 467.00 120.00 C 465.67 120.83 463.67 123.17 463.00 124.00 C 462.33 124.83 463.50 124.17 463.00 125.00 C 462.50 125.83 460.50 128.00 460.00 129.00 C 459.50 130.00 459.67 130.33 460.00 131.00 C 460.33 131.67 461.00 132.67 462.00 133.00 C 463.00 133.33 465.17 133.17 466.00 133.00 C 466.83 132.83 466.00 132.33 467.00 132.00 C 468.00 131.67 470.67 131.67 472.00 131.00 C 473.33 130.33 474.33 128.50 475.00 128.00 C 475.67 127.50 475.67 128.50 476.00 128.00 C 476.33 127.50 476.50 125.83 477.00 125.00 C 477.50 124.17 478.33 123.50 479.00 123.00 C 479.67 122.50 479.17 122.17 481.00 122.00 C 482.83 121.83 487.83 122.50 490.00 122.00 C 492.17 121.50 493.17 120.00 494.00 119.00 C 494.83 118.00 495.17 116.83 495.00 116.00 Z" fill="#000000" fill-rule="evenodd" stroke="none" /><path d="M 0.00 353.00 C 3.83 366.00 17.17 386.00 29.00 394.00 C 40.83 402.00 55.67 402.33 71.00 401.00 C 86.33 399.67 104.67 394.17 121.00 386.00 C 137.33 377.83 157.67 362.83 169.00 352.00 C 180.33 341.17 184.17 334.83 189.00 321.00 C 193.83 307.17 170.50 274.50 198.00 269.00 C 225.50 263.50 316.67 288.17 354.00 288.00 C 391.33 287.83 410.17 265.67 422.00 268.00 C 433.83 270.33 419.83 294.33 425.00 302.00 C 430.17 309.67 437.83 318.50 453.00 314.00 C 468.17 309.50 498.50 281.00 516.00 275.00 C 533.50 269.00 540.83 282.83 558.00 278.00 C 575.17 273.17 609.33 246.33 619.00 246.00 C 628.67 245.67 613.83 268.67 616.00 276.00 C 618.17 283.33 623.00 288.00 632.00 290.00 C 641.00 292.00 663.33 286.67 670.00 288.00 C 676.67 289.33 659.50 297.17 672.00 298.00 C 684.50 298.83 746.17 269.67 745.00 293.00 C 743.83 316.33 678.83 405.00 665.00 438.00 C 651.17 471.00 659.33 481.17 662.00 491.00 C 664.67 500.83 670.33 503.50 681.00 497.00 C 691.67 490.50 708.67 478.67 726.00 452.00 C 743.33 425.33 767.33 358.50 785.00 337.00 C 802.67 315.50 825.33 329.17 832.00 323.00 C 838.67 316.83 835.83 307.17 825.00 300.00 C 814.17 292.83 761.50 303.17 767.00 280.00 C 772.50 256.83 831.33 190.83 858.00 161.00 C 884.67 131.17 907.33 121.83 927.00 101.00 C 946.67 80.17 973.33 44.50 976.00 36.00 C 978.67 27.50 964.00 30.00 943.00 50.00 C 922.00 70.00 892.00 119.50 850.00 156.00 C 808.00 192.50 726.17 247.83 691.00 269.00 C 655.83 290.17 650.17 284.00 639.00 283.00 C 627.83 282.00 624.17 271.17 624.00 263.00 C 623.83 254.83 625.00 247.00 638.00 234.00 C 651.00 221.00 691.17 194.67 702.00 185.00 C 712.83 175.33 704.33 177.83 703.00 176.00 C 701.67 174.17 700.50 171.83 694.00 174.00 C 687.50 176.17 674.67 179.83 664.00 189.00 C 653.33 198.17 649.50 215.00 630.00 229.00 C 610.50 243.00 565.00 267.50 547.00 273.00 C 529.00 278.50 534.50 257.67 522.00 262.00 C 509.50 266.33 485.33 291.83 472.00 299.00 C 458.67 306.17 448.83 306.67 442.00 305.00 C 435.17 303.33 432.67 295.00 431.00 289.00 C 429.33 283.00 425.67 280.00 432.00 269.00 C 438.33 258.00 464.67 234.67 469.00 223.00 C 473.33 211.33 462.33 201.50 458.00 199.00 C 453.67 196.50 448.67 198.50 443.00 208.00 C 437.33 217.50 434.83 244.67 424.00 256.00 C 413.17 267.33 395.67 272.17 378.00 276.00 C 360.33 279.83 348.50 281.67 318.00 279.00 C 287.50 276.33 221.00 274.67 195.00 260.00 C 169.00 245.33 181.00 217.50 162.00 191.00 C 143.00 164.50 92.33 121.50 81.00 101.00 C 69.67 80.50 80.17 79.67 94.00 68.00 C 107.83 56.33 131.00 40.83 164.00 31.00 C 197.00 21.17 260.17 12.50 292.00 9.00 C 323.83 5.50 340.33 8.00 355.00 10.00 C 369.67 12.00 376.50 21.00 380.00 21.00 C 383.50 21.00 390.67 13.50 376.00 10.00 C 361.33 6.50 328.67 -2.50 292.00 0.00 C 255.33 2.50 187.83 16.33 156.00 25.00 C 124.17 33.67 114.00 43.67 101.00 52.00 C 88.00 60.33 82.83 68.00 78.00 75.00 C 73.17 82.00 69.83 84.67 72.00 94.00 C 74.17 103.33 76.67 113.33 91.00 131.00 C 105.33 148.67 142.50 178.67 158.00 200.00 C 173.50 221.33 203.50 244.50 184.00 259.00 C 164.50 273.50 70.67 277.50 41.00 287.00 C 11.33 296.50 12.83 305.00 6.00 316.00 C -0.83 327.00 -3.83 340.00 0.00 353.00 Z M 817.00 303.00 C 817.83 303.83 818.67 305.17 819.00 306.00 C 819.33 306.83 818.67 307.33 819.00 308.00 C 819.33 308.67 820.50 308.67 821.00 310.00 C 821.50 311.33 822.17 314.67 822.00 316.00 C 821.83 317.33 822.33 317.67 820.00 318.00 C 817.67 318.33 810.17 317.83 808.00 318.00 C 805.83 318.17 809.17 318.67 807.00 319.00 C 804.83 319.33 798.00 319.33 795.00 320.00 C 792.00 320.67 790.67 322.50 789.00 323.00 C 787.33 323.50 787.00 322.00 785.00 323.00 C 783.00 324.00 778.33 327.33 777.00 329.00 C 775.67 330.67 777.67 331.33 777.00 333.00 C 776.33 334.67 773.67 337.50 773.00 339.00 C 772.33 340.50 773.50 340.83 773.00 342.00 C 772.50 343.17 770.50 344.67 770.00 346.00 C 769.50 347.33 771.00 347.67 770.00 350.00 C 769.00 352.33 765.00 357.83 764.00 360.00 C 763.00 362.17 764.67 361.67 764.00 363.00 C 763.33 364.33 760.83 366.33 760.00 368.00 C 759.17 369.67 759.83 371.17 759.00 373.00 C 758.17 374.83 756.00 377.00 755.00 379.00 C 754.00 381.00 753.83 383.50 753.00 385.00 C 752.17 386.50 750.50 387.17 750.00 388.00 C 749.50 388.83 750.33 389.33 750.00 390.00 C 749.67 390.67 748.33 391.33 748.00 392.00 C 747.67 392.67 748.33 393.33 748.00 394.00 C 747.67 394.67 746.33 395.33 746.00 396.00 C 745.67 396.67 746.33 397.33 746.00 398.00 C 745.67 398.67 744.50 399.00 744.00 400.00 C 743.50 401.00 743.67 402.83 743.00 404.00 C 742.33 405.17 740.50 406.17 740.00 407.00 C 739.50 407.83 740.33 408.33 740.00 409.00 C 739.67 409.67 738.67 409.83 738.00 411.00 C 737.33 412.17 736.83 414.67 736.00 416.00 C 735.17 417.33 733.50 418.17 733.00 419.00 C 732.50 419.83 733.33 420.33 733.00 421.00 C 732.67 421.67 731.50 422.00 731.00 423.00 C 730.50 424.00 730.50 426.00 730.00 427.00 C 729.50 428.00 728.33 428.33 728.00 429.00 C 727.67 429.67 729.00 429.50 728.00 431.00 C 727.00 432.50 723.00 436.50 722.00 438.00 C 721.00 439.50 722.67 439.00 722.00 440.00 C 721.33 441.00 718.67 443.00 718.00 444.00 C 717.33 445.00 718.67 445.00 718.00 446.00 C 717.33 447.00 715.33 448.17 714.00 450.00 C 712.67 451.83 712.00 454.17 710.00 457.00 C 708.00 459.83 704.33 464.50 702.00 467.00 C 699.67 469.50 697.33 470.50 696.00 472.00 C 694.67 473.50 695.83 474.17 694.00 476.00 C 692.17 477.83 686.83 481.33 685.00 483.00 C 683.17 484.67 684.00 485.33 683.00 486.00 C 682.00 486.67 680.00 486.50 679.00 487.00 C 678.00 487.50 678.00 488.83 677.00 489.00 C 676.00 489.17 674.00 488.50 673.00 488.00 C 672.00 487.50 671.33 486.67 671.00 486.00 C 670.67 485.33 671.33 484.83 671.00 484.00 C 670.67 483.17 669.33 484.33 669.00 481.00 C 668.67 477.67 668.83 467.00 669.00 464.00 C 669.17 461.00 669.83 464.00 670.00 463.00 C 670.17 462.00 669.67 459.67 670.00 458.00 C 670.33 456.33 671.67 454.50 672.00 453.00 C 672.33 451.50 671.67 450.17 672.00 449.00 C 672.33 447.83 673.67 447.50 674.00 446.00 C 674.33 444.50 673.50 441.83 674.00 440.00 C 674.50 438.17 676.50 436.33 677.00 435.00 C 677.50 433.67 676.50 433.33 677.00 432.00 C 677.50 430.67 679.50 428.33 680.00 427.00 C 680.50 425.67 679.67 425.00 680.00 424.00 C 680.33 423.00 681.67 421.83 682.00 421.00 C 682.33 420.17 681.17 420.67 682.00 419.00 C 682.83 417.33 685.83 413.50 687.00 411.00 C 688.17 408.50 687.67 406.33 689.00 404.00 C 690.33 401.67 694.00 398.50 695.00 397.00 C 696.00 395.50 694.67 395.67 695.00 395.00 C 695.33 394.33 696.67 394.00 697.00 393.00 C 697.33 392.00 696.67 390.00 697.00 389.00 C 697.33 388.00 698.33 388.33 699.00 387.00 C 699.67 385.67 699.67 383.17 701.00 381.00 C 702.33 378.83 706.00 375.50 707.00 374.00 C 708.00 372.50 706.50 373.00 707.00 372.00 C 707.50 371.00 709.33 369.50 710.00 368.00 C 710.67 366.50 709.50 365.33 711.00 363.00 C 712.50 360.67 717.50 356.33 719.00 354.00 C 720.50 351.67 719.17 350.50 720.00 349.00 C 720.83 347.50 723.17 346.17 724.00 345.00 C 724.83 343.83 724.33 343.00 725.00 342.00 C 725.67 341.00 727.33 340.17 728.00 339.00 C 728.67 337.83 728.00 336.50 729.00 335.00 C 730.00 333.50 733.00 331.50 734.00 330.00 C 735.00 328.50 733.00 329.00 735.00 326.00 C 737.00 323.00 743.83 315.17 746.00 312.00 C 748.17 308.83 746.83 308.67 748.00 307.00 C 749.17 305.33 752.00 303.33 753.00 302.00 C 754.00 300.67 753.33 300.00 754.00 299.00 C 754.67 298.00 756.50 296.83 757.00 296.00 C 757.50 295.17 756.33 294.83 757.00 294.00 C 757.67 293.17 758.67 291.33 761.00 291.00 C 763.33 290.67 768.33 291.50 771.00 292.00 C 773.67 292.50 773.67 293.67 777.00 294.00 C 780.33 294.33 788.33 293.67 791.00 294.00 C 793.67 294.33 791.83 295.67 793.00 296.00 C 794.17 296.33 797.00 295.83 798.00 296.00 C 799.00 296.17 797.50 296.67 799.00 297.00 C 800.50 297.33 805.00 297.33 807.00 298.00 C 809.00 298.67 809.83 300.50 811.00 301.00 C 812.17 301.50 813.00 300.67 814.00 301.00 C 815.00 301.33 816.17 302.17 817.00 303.00 Z M 187.00 272.00 C 187.50 276.00 187.17 289.33 187.00 293.00 C 186.83 296.67 186.17 292.33 186.00 294.00 C 185.83 295.67 186.33 300.83 186.00 303.00 C 185.67 305.17 184.33 305.83 184.00 307.00 C 183.67 308.17 184.33 309.17 184.00 310.00 C 183.67 310.83 182.33 311.00 182.00 312.00 C 181.67 313.00 182.50 314.67 182.00 316.00 C 181.50 317.33 179.50 319.00 179.00 320.00 C 178.50 321.00 179.33 321.33 179.00 322.00 C 178.67 322.67 177.67 322.67 177.00 324.00 C 176.33 325.33 177.17 326.50 175.00 330.00 C 172.83 333.50 167.33 341.00 164.00 345.00 C 160.67 349.00 157.17 352.17 155.00 354.00 C 152.83 355.83 152.67 354.67 151.00 356.00 C 149.33 357.33 146.67 360.83 145.00 362.00 C 143.33 363.17 143.67 361.33 141.00 363.00 C 138.33 364.67 131.50 370.50 129.00 372.00 C 126.50 373.50 126.83 371.67 126.00 372.00 C 125.17 372.33 124.83 373.67 124.00 374.00 C 123.17 374.33 122.17 373.50 121.00 374.00 C 119.83 374.50 118.67 376.33 117.00 377.00 C 115.33 377.67 113.00 377.17 111.00 378.00 C 109.00 378.83 106.50 381.33 105.00 382.00 C 103.50 382.67 102.83 381.67 102.00 382.00 C 101.17 382.33 101.00 383.67 100.00 384.00 C 99.00 384.33 97.67 383.50 96.00 384.00 C 94.33 384.50 92.83 386.33 90.00 387.00 C 87.17 387.67 81.33 387.50 79.00 388.00 C 76.67 388.50 78.00 389.67 76.00 390.00 C 74.00 390.33 68.67 389.83 67.00 390.00 C 65.33 390.17 66.50 390.83 66.00 391.00 C 65.50 391.17 64.50 391.17 64.00 391.00 C 63.50 390.83 64.17 390.17 63.00 390.00 C 61.83 389.83 58.17 389.83 57.00 390.00 C 55.83 390.17 56.50 390.83 56.00 391.00 C 55.50 391.17 54.50 391.17 54.00 391.00 C 53.50 390.83 54.50 390.17 53.00 390.00 C 51.50 389.83 46.67 390.33 45.00 390.00 C 43.33 389.67 43.67 388.33 43.00 388.00 C 42.33 387.67 41.67 388.33 41.00 388.00 C 40.33 387.67 39.67 386.33 39.00 386.00 C 38.33 385.67 39.50 387.83 37.00 386.00 C 34.50 384.17 27.17 378.33 24.00 375.00 C 20.83 371.67 19.67 368.17 18.00 366.00 C 16.33 363.83 15.17 364.00 14.00 362.00 C 12.83 360.00 11.50 355.83 11.00 354.00 C 10.50 352.17 11.50 352.17 11.00 351.00 C 10.50 349.83 8.50 349.50 8.00 347.00 C 7.50 344.50 7.83 338.00 8.00 336.00 C 8.17 334.00 8.83 336.00 9.00 335.00 C 9.17 334.00 8.83 331.00 9.00 330.00 C 9.17 329.00 9.83 329.50 10.00 329.00 C 10.17 328.50 9.67 327.67 10.00 327.00 C 10.33 326.33 11.17 326.50 12.00 325.00 C 12.83 323.50 12.33 321.33 15.00 318.00 C 17.67 314.67 24.50 308.17 28.00 305.00 C 31.50 301.83 34.33 300.00 36.00 299.00 C 37.67 298.00 36.67 299.67 38.00 299.00 C 39.33 298.33 42.50 295.67 44.00 295.00 C 45.50 294.33 45.50 295.67 47.00 295.00 C 48.50 294.33 51.33 291.67 53.00 291.00 C 54.67 290.33 55.67 291.50 57.00 291.00 C 58.33 290.50 59.00 288.67 61.00 288.00 C 63.00 287.33 67.17 287.50 69.00 287.00 C 70.83 286.50 70.83 285.33 72.00 285.00 C 73.17 284.67 74.83 285.33 76.00 285.00 C 77.17 284.67 77.67 283.33 79.00 283.00 C 80.33 282.67 83.00 283.17 84.00 283.00 C 85.00 282.83 83.50 282.33 85.00 282.00 C 86.50 281.67 91.50 281.33 93.00 281.00 C 94.50 280.67 92.00 280.33 94.00 280.00 C 96.00 279.67 102.50 279.50 105.00 279.00 C 107.50 278.50 107.50 277.17 109.00 277.00 C 110.50 276.83 112.33 278.17 114.00 278.00 C 115.67 277.83 116.67 276.50 119.00 276.00 C 121.33 275.50 126.00 275.50 128.00 275.00 C 130.00 274.50 129.00 273.17 131.00 273.00 C 133.00 272.83 138.00 274.17 140.00 274.00 C 142.00 273.83 140.17 272.33 143.00 272.00 C 145.83 271.67 154.50 272.17 157.00 272.00 C 159.50 271.83 157.00 271.17 158.00 271.00 C 159.00 270.83 162.00 271.17 163.00 271.00 C 164.00 270.83 162.00 270.17 164.00 270.00 C 166.00 269.83 173.00 270.17 175.00 270.00 C 177.00 269.83 174.50 269.17 176.00 269.00 C 177.50 268.83 182.17 268.50 184.00 269.00 C 185.83 269.50 186.50 268.00 187.00 272.00 Z M 455.00 210.00 C 455.67 210.67 457.50 212.67 458.00 214.00 C 458.50 215.33 457.67 216.83 458.00 218.00 C 458.33 219.17 460.00 220.00 460.00 221.00 C 460.00 222.00 458.33 223.00 458.00 224.00 C 457.67 225.00 458.83 225.50 458.00 227.00 C 457.17 228.50 453.83 231.83 453.00 233.00 C 452.17 234.17 454.00 232.83 453.00 234.00 C 452.00 235.17 448.17 239.00 447.00 240.00 C 445.83 241.00 446.83 239.33 446.00 240.00 C 445.17 240.67 443.00 243.17 442.00 244.00 C 441.00 244.83 440.67 245.17 440.00 245.00 C 439.33 244.83 438.17 243.50 438.00 243.00 C 437.83 242.50 438.83 242.83 439.00 242.00 C 439.17 241.17 438.67 239.00 439.00 238.00 C 439.33 237.00 440.67 236.83 441.00 236.00 C 441.33 235.17 440.67 233.83 441.00 233.00 C 441.33 232.17 442.67 231.83 443.00 231.00 C 443.33 230.17 442.67 228.83 443.00 228.00 C 443.33 227.17 444.33 227.17 445.00 226.00 C 445.67 224.83 445.83 223.00 447.00 221.00 C 448.17 219.00 451.17 215.50 452.00 214.00 C 452.83 212.50 451.67 212.67 452.00 212.00 C 452.33 211.33 453.50 210.33 454.00 210.00 C 454.50 209.67 454.33 209.33 455.00 210.00 Z M 685.00 189.00 C 685.33 189.50 685.50 189.33 685.00 190.00 C 684.50 190.67 682.83 192.50 682.00 193.00 C 681.17 193.50 680.83 192.50 680.00 193.00 C 679.17 193.50 677.67 195.50 677.00 196.00 C 676.33 196.50 676.67 195.50 676.00 196.00 C 675.33 196.50 673.67 198.50 673.00 199.00 C 672.33 199.50 672.83 198.33 672.00 199.00 C 671.17 199.67 668.83 202.33 668.00 203.00 C 667.17 203.67 667.50 202.67 667.00 203.00 C 666.50 203.33 665.67 204.83 665.00 205.00 C 664.33 205.17 663.17 204.67 663.00 204.00 C 662.83 203.33 663.00 202.33 664.00 201.00 C 665.00 199.67 667.50 197.17 669.00 196.00 C 670.50 194.83 671.17 195.33 673.00 194.00 C 674.83 192.67 678.50 189.00 680.00 188.00 C 681.50 187.00 681.50 188.17 682.00 188.00 C 682.50 187.83 682.50 186.83 683.00 187.00 C 683.50 187.17 684.67 188.50 685.00 189.00 Z M 828.00 184.00 C 827.50 185.33 823.83 189.67 823.00 191.00 C 822.17 192.33 823.67 191.17 823.00 192.00 C 822.33 192.83 819.83 194.83 819.00 196.00 C 818.17 197.17 818.67 198.00 818.00 199.00 C 817.33 200.00 815.83 200.83 815.00 202.00 C 814.17 203.17 814.67 204.00 813.00 206.00 C 811.33 208.00 806.67 211.83 805.00 214.00 C 803.33 216.17 803.67 217.83 803.00 219.00 C 802.33 220.17 801.50 220.67 801.00 221.00 C 800.50 221.33 800.33 220.50 800.00 221.00 C 799.67 221.50 799.83 222.83 799.00 224.00 C 798.17 225.17 796.00 226.67 795.00 228.00 C 794.00 229.33 793.83 230.83 793.00 232.00 C 792.17 233.17 790.50 234.17 790.00 235.00 C 789.50 235.83 791.50 235.17 790.00 237.00 C 788.50 238.83 782.50 244.17 781.00 246.00 C 779.50 247.83 781.67 247.00 781.00 248.00 C 780.33 249.00 777.67 251.17 777.00 252.00 C 776.33 252.83 778.50 251.00 777.00 253.00 C 775.50 255.00 769.67 261.67 768.00 264.00 C 766.33 266.33 768.33 265.33 767.00 267.00 C 765.67 268.67 761.33 272.33 760.00 274.00 C 758.67 275.67 760.17 275.33 759.00 277.00 C 757.83 278.67 755.00 282.83 753.00 284.00 C 751.00 285.17 748.17 284.17 747.00 284.00 C 745.83 283.83 746.17 283.33 746.00 283.00 C 745.83 282.67 745.50 282.67 746.00 282.00 C 746.50 281.33 748.17 279.50 749.00 279.00 C 749.83 278.50 750.33 279.33 751.00 279.00 C 751.67 278.67 752.67 277.83 753.00 277.00 C 753.33 276.17 753.83 274.50 753.00 274.00 C 752.17 273.50 749.00 273.83 748.00 274.00 C 747.00 274.17 747.67 274.83 747.00 275.00 C 746.33 275.17 744.67 274.83 744.00 275.00 C 743.33 275.17 744.00 275.83 743.00 276.00 C 742.00 276.17 739.33 275.67 738.00 276.00 C 736.67 276.33 736.00 277.67 735.00 278.00 C 734.00 278.33 733.00 277.67 732.00 278.00 C 731.00 278.33 730.50 279.50 729.00 280.00 C 727.50 280.50 724.50 280.50 723.00 281.00 C 721.50 281.50 721.33 282.67 720.00 283.00 C 718.67 283.33 716.33 282.67 715.00 283.00 C 713.67 283.33 713.67 284.67 712.00 285.00 C 710.33 285.33 706.33 284.83 705.00 285.00 C 703.67 285.17 705.67 285.83 704.00 286.00 C 702.33 286.17 696.67 285.83 695.00 286.00 C 693.33 286.17 695.67 286.83 694.00 287.00 C 692.33 287.17 687.00 286.67 685.00 287.00 C 683.00 287.33 683.67 288.67 682.00 289.00 C 680.33 289.33 676.50 289.33 675.00 289.00 C 673.50 288.67 673.00 287.67 673.00 287.00 C 673.00 286.33 674.33 285.33 675.00 285.00 C 675.67 284.67 676.33 285.33 677.00 285.00 C 677.67 284.67 678.33 283.33 679.00 283.00 C 679.67 282.67 680.33 283.33 681.00 283.00 C 681.67 282.67 682.33 281.33 683.00 281.00 C 683.67 280.67 684.33 281.33 685.00 281.00 C 685.67 280.67 686.00 279.50 687.00 279.00 C 688.00 278.50 689.83 278.67 691.00 278.00 C 692.17 277.33 693.17 275.50 694.00 275.00 C 694.83 274.50 695.33 275.33 696.00 275.00 C 696.67 274.67 696.00 274.17 698.00 273.00 C 700.00 271.83 705.17 269.83 708.00 268.00 C 710.83 266.17 713.33 263.17 715.00 262.00 C 716.67 260.83 717.17 261.50 718.00 261.00 C 718.83 260.50 719.00 259.67 720.00 259.00 C 721.00 258.33 722.67 258.00 724.00 257.00 C 725.33 256.00 726.83 253.83 728.00 253.00 C 729.17 252.17 730.00 252.67 731.00 252.00 C 732.00 251.33 732.83 249.67 734.00 249.00 C 735.17 248.33 736.50 249.00 738.00 248.00 C 739.50 247.00 741.50 244.17 743.00 243.00 C 744.50 241.83 744.83 242.67 747.00 241.00 C 749.17 239.33 754.17 234.33 756.00 233.00 C 757.83 231.67 756.83 233.83 758.00 233.00 C 759.17 232.17 761.67 229.00 763.00 228.00 C 764.33 227.00 765.17 227.67 766.00 227.00 C 766.83 226.33 767.17 224.67 768.00 224.00 C 768.83 223.33 769.50 224.00 771.00 223.00 C 772.50 222.00 775.33 219.17 777.00 218.00 C 778.67 216.83 779.50 217.17 781.00 216.00 C 782.50 214.83 785.00 211.83 786.00 211.00 C 787.00 210.17 786.33 211.50 787.00 211.00 C 787.67 210.50 789.00 208.67 790.00 208.00 C 791.00 207.33 790.33 209.00 793.00 207.00 C 795.67 205.00 803.00 198.17 806.00 196.00 C 809.00 193.83 808.50 195.83 811.00 194.00 C 813.50 192.17 818.67 186.67 821.00 185.00 C 823.33 183.33 824.17 184.33 825.00 184.00 C 825.83 183.67 825.50 183.00 826.00 183.00 C 826.50 183.00 828.50 182.67 828.00 184.00 Z M 827.00 183.00 C 827.00 182.67 827.67 182.00 828.00 182.00 C 828.33 182.00 829.00 182.67 829.00 183.00 C 829.00 183.33 828.33 184.00 828.00 184.00 C 827.67 184.00 827.00 183.33 827.00 183.00 Z M 828.00 182.00 C 828.00 181.67 828.67 181.00 829.00 181.00 C 829.33 181.00 830.00 181.67 830.00 182.00 C 830.00 182.33 829.33 183.00 829.00 183.00 C 828.67 183.00 828.00 182.33 828.00 182.00 Z M 829.00 181.00 C 829.00 180.67 829.67 180.00 830.00 180.00 C 830.33 180.00 831.00 180.67 831.00 181.00 C 831.00 181.33 830.33 182.00 830.00 182.00 C 829.67 182.00 829.00 181.33 829.00 181.00 Z M 956.00 52.00 C 956.50 52.17 957.00 52.17 957.00 53.00 C 957.00 53.83 957.17 55.50 956.00 57.00 C 954.83 58.50 951.00 61.00 950.00 62.00 C 949.00 63.00 950.67 62.17 950.00 63.00 C 949.33 63.83 946.67 66.17 946.00 67.00 C 945.33 67.83 949.00 64.67 946.00 68.00 C 943.00 71.33 931.00 83.67 928.00 87.00 C 925.00 90.33 928.33 87.50 928.00 88.00 C 927.67 88.50 926.50 89.67 926.00 90.00 C 925.50 90.33 925.67 89.33 925.00 90.00 C 924.33 90.67 922.67 93.33 922.00 94.00 C 921.33 94.67 925.17 90.00 921.00 94.00 C 916.83 98.00 901.17 114.00 897.00 118.00 C 892.83 122.00 896.67 117.50 896.00 118.00 C 895.33 118.50 893.67 120.83 893.00 121.00 C 892.33 121.17 891.83 120.00 892.00 119.00 C 892.17 118.00 892.67 116.50 894.00 115.00 C 895.33 113.50 899.00 111.00 900.00 110.00 C 901.00 109.00 899.33 109.83 900.00 109.00 C 900.67 108.17 903.33 105.83 904.00 105.00 C 904.67 104.17 903.33 104.83 904.00 104.00 C 904.67 103.17 907.33 100.83 908.00 100.00 C 908.67 99.17 905.33 102.00 908.00 99.00 C 910.67 96.00 921.00 85.50 924.00 82.00 C 927.00 78.50 922.67 81.50 926.00 78.00 C 929.33 74.50 940.83 63.83 944.00 61.00 C 947.17 58.17 944.00 62.00 945.00 61.00 C 946.00 60.00 949.00 56.00 950.00 55.00 C 951.00 54.00 950.33 55.50 951.00 55.00 C 951.67 54.50 953.17 52.50 954.00 52.00 C 954.83 51.50 955.50 51.83 956.00 52.00 Z" fill="#000000" fill-rule="evenodd" stroke="none" /></svg>