<svg width="256" height="256" viewBox="0 0 256 256" fill="none" xmlns="http://www.w3.org/2000/svg">
<rect width="256" height="256" fill="#F4F4F5"/>
<path d="M43.12 161C42.416 161 41.84 160.776 41.392 160.328C40.944 159.88 40.72 159.304 40.72 158.6V96.2C40.72 95.496 40.944 94.92 41.392 94.472C41.84 94.024 42.416 93.8 43.12 93.8H55.792C56.432 93.8 56.976 94.024 57.424 94.472C57.936 94.92 58.192 95.496 58.192 96.2V146.504H87.184C87.888 146.504 88.464 146.76 88.912 147.272C89.424 147.72 89.68 148.296 89.68 149V158.6C89.68 159.304 89.424 159.88 88.912 160.328C88.464 160.776 87.888 161 87.184 161H43.12ZM100.401 161C99.6973 161 99.1213 160.776 98.6733 160.328C98.2253 159.88 98.0013 159.304 98.0013 158.6V96.2C98.0013 95.496 98.2253 94.92 98.6733 94.472C99.1213 94.024 99.6973 93.8 100.401 93.8H127.281C132.593 93.8 137.201 94.632 141.105 96.296C145.073 97.896 148.145 100.328 150.321 103.592C152.561 106.856 153.681 110.984 153.681 115.976C153.681 120.904 152.561 124.968 150.321 128.168C148.145 131.368 145.073 133.736 141.105 135.272C137.201 136.808 132.593 137.576 127.281 137.576H115.857V158.6C115.857 159.304 115.601 159.88 115.089 160.328C114.641 160.776 114.065 161 113.361 161H100.401ZM115.569 124.328H126.801C129.553 124.328 131.729 123.624 133.329 122.216C134.993 120.808 135.825 118.664 135.825 115.784C135.825 113.352 135.121 111.304 133.713 109.64C132.305 107.976 130.001 107.144 126.801 107.144H115.569V124.328ZM165.276 161C164.572 161 163.996 160.776 163.548 160.328C163.1 159.88 162.876 159.304 162.876 158.6V96.2C162.876 95.496 163.1 94.92 163.548 94.472C163.996 94.024 164.572 93.8 165.276 93.8H192.156C197.468 93.8 202.076 94.632 205.98 96.296C209.948 97.896 213.02 100.328 215.196 103.592C217.436 106.856 218.556 110.984 218.556 115.976C218.556 120.904 217.436 124.968 215.196 128.168C213.02 131.368 209.948 133.736 205.98 135.272C202.076 136.808 197.468 137.576 192.156 137.576H180.732V158.6C180.732 159.304 180.476 159.88 179.964 160.328C179.516 160.776 178.94 161 178.236 161H165.276ZM180.444 124.328H191.676C194.428 124.328 196.604 123.624 198.204 122.216C199.868 120.808 200.7 118.664 200.7 115.784C200.7 113.352 199.996 111.304 198.588 109.64C197.18 107.976 194.876 107.144 191.676 107.144H180.444V124.328Z" fill="#19191B"/>
</svg>
