<svg width="256" height="256" viewBox="0 0 256 256" fill="none" xmlns="http://www.w3.org/2000/svg">
<rect width="256" height="256" fill="#BEA3F8"/>
<path d="M36.12 161C35.48 161 34.904 160.776 34.392 160.328C33.944 159.88 33.72 159.304 33.72 158.6V96.2C33.72 95.496 33.944 94.92 34.392 94.472C34.904 94.024 35.48 93.8 36.12 93.8H46.488C47.512 93.8 48.28 94.088 48.792 94.664C49.368 95.176 49.72 95.592 49.848 95.912L66.744 126.248L83.64 95.912C83.832 95.592 84.152 95.176 84.6 94.664C85.112 94.088 85.912 93.8 87 93.8H97.272C97.976 93.8 98.552 94.024 99 94.472C99.512 94.92 99.768 95.496 99.768 96.2V158.6C99.768 159.304 99.512 159.88 99 160.328C98.552 160.776 97.976 161 97.272 161H85.848C85.144 161 84.536 160.776 84.024 160.328C83.576 159.88 83.352 159.304 83.352 158.6V122.6L72.504 142.664C72.248 143.24 71.864 143.752 71.352 144.2C70.84 144.648 70.136 144.872 69.24 144.872H64.248C63.352 144.872 62.648 144.648 62.136 144.2C61.624 143.752 61.208 143.24 60.888 142.664L50.04 122.6V158.6C50.04 159.304 49.816 159.88 49.368 160.328C48.92 160.776 48.344 161 47.64 161H36.12ZM109.286 161C108.774 161 108.294 160.808 107.846 160.424C107.462 159.976 107.27 159.496 107.27 158.984C107.27 158.664 107.302 158.376 107.366 158.12L129.926 96.488C130.118 95.784 130.502 95.176 131.078 94.664C131.718 94.088 132.582 93.8 133.67 93.8H147.878C148.966 93.8 149.798 94.088 150.374 94.664C151.014 95.176 151.43 95.784 151.622 96.488L174.086 158.12C174.214 158.376 174.278 158.664 174.278 158.984C174.278 159.496 174.054 159.976 173.606 160.424C173.222 160.808 172.742 161 172.166 161H160.358C159.398 161 158.662 160.776 158.15 160.328C157.702 159.816 157.414 159.368 157.286 158.984L153.542 149.192H127.91L124.262 158.984C124.134 159.368 123.846 159.816 123.398 160.328C122.95 160.776 122.182 161 121.094 161H109.286ZM131.846 135.368H149.702L140.678 110.024L131.846 135.368ZM192.185 161C191.481 161 190.905 160.776 190.457 160.328C190.009 159.88 189.785 159.304 189.785 158.6V108.872H172.697C171.993 108.872 171.417 108.648 170.969 108.2C170.521 107.688 170.297 107.112 170.297 106.472V96.2C170.297 95.496 170.521 94.92 170.969 94.472C171.417 94.024 171.993 93.8 172.697 93.8H224.345C225.049 93.8 225.625 94.024 226.073 94.472C226.521 94.92 226.745 95.496 226.745 96.2V106.472C226.745 107.112 226.521 107.688 226.073 108.2C225.625 108.648 225.049 108.872 224.345 108.872H207.257V158.6C207.257 159.304 207.033 159.88 206.585 160.328C206.137 160.776 205.561 161 204.857 161H192.185Z" fill="#19191B"/>
</svg>
