<svg width="256" height="256" viewBox="0 0 256 256" fill="none" xmlns="http://www.w3.org/2000/svg">
<rect width="256" height="256" rx="32" fill="#2C1A45"/>
<g clip-path="url(#clip0_20_229)">
<path fill-rule="evenodd" clip-rule="evenodd" d="M74.684 38L38 74.684L91.064 127.748L38 180.803L74.684 217.487L164.432 127.748L74.684 38Z" fill="#FFC000"/>
<path fill-rule="evenodd" clip-rule="evenodd" d="M91.064 127.748H164.432L38 74.684L91.064 127.748Z" fill="#96D94E"/>
<path fill-rule="evenodd" clip-rule="evenodd" d="M74.684 38L38 74.684L164.432 127.748L74.684 38Z" fill="#00A332"/>
<path fill-rule="evenodd" clip-rule="evenodd" d="M91.0641 127.748L74.6841 217.487L164.432 127.748H91.0641Z" fill="#FF7337"/>
<path fill-rule="evenodd" clip-rule="evenodd" d="M180.803 38L136.064 82.739L172.748 119.423L217.487 74.684L180.803 38Z" fill="#FF7EA9"/>
<path fill-rule="evenodd" clip-rule="evenodd" d="M180.803 38L172.748 119.423L217.487 74.684L180.803 38Z" fill="#EF2500"/>
<path fill-rule="evenodd" clip-rule="evenodd" d="M217.487 180.803L172.748 136.064L136.064 172.748L217.487 180.803Z" fill="#00C1FF"/>
<path fill-rule="evenodd" clip-rule="evenodd" d="M180.803 217.487L217.487 180.803L136.064 172.748L180.803 217.487Z" fill="#0058FF"/>
</g>
<defs>
<clipPath id="clip0_20_229">
<rect width="180" height="180" fill="white" transform="translate(38 38)"/>
</clipPath>
</defs>
</svg>
