<svg width="256" height="256" viewBox="0 0 256 256" fill="none" xmlns="http://www.w3.org/2000/svg">
<rect width="256" height="256" rx="32" fill="#2C1A45"/>
<path d="M128 67.5833C125.538 67.5833 123.1 68.0683 120.825 69.0106C118.55 69.9529 116.483 71.334 114.742 73.0751C113.001 74.8162 111.62 76.8832 110.677 79.158C109.735 81.4329 109.25 83.871 109.25 86.3333C109.25 88.7956 109.735 91.2338 110.677 93.5086C111.62 95.7835 113.001 97.8505 114.742 99.5916C116.483 101.333 118.55 102.714 120.825 103.656C123.1 104.598 125.538 105.083 128 105.083C132.973 105.083 137.742 103.108 141.258 99.5916C144.775 96.0753 146.75 91.3061 146.75 86.3333C146.75 81.3605 144.775 76.5914 141.258 73.0751C137.742 69.5588 132.973 67.5833 128 67.5833ZM96.75 86.3333C96.75 78.0453 100.042 70.0968 105.903 64.2362C111.763 58.3757 119.712 55.0833 128 55.0833C136.288 55.0833 144.237 58.3757 150.097 64.2362C155.958 70.0968 159.25 78.0453 159.25 86.3333C159.25 94.6213 155.958 102.57 150.097 108.43C144.237 114.291 136.288 117.583 128 117.583C119.712 117.583 111.763 114.291 105.903 108.43C100.042 102.57 96.75 94.6213 96.75 86.3333ZM105.617 134.825C106.717 135.642 108.133 136.6 109.825 137.55C114.1 139.967 120.367 142.467 127.992 142.467C135.617 142.467 141.892 139.967 146.167 137.55C147.858 136.6 149.275 135.642 150.375 134.825C151.942 135.242 153.494 135.703 155.033 136.208L163.033 138.833C169.033 140.808 173.567 145.6 175.183 151.525L178.492 175.392C179.117 179.925 176.742 183.217 173.442 184C164.717 186.083 150.008 188.417 128 188.417C105.992 188.417 91.275 186.083 82.55 184C79.2584 183.217 76.8834 179.925 77.5 175.392L80.8084 151.525C81.6304 148.571 83.1708 145.865 85.2923 143.651C87.4137 141.436 90.0502 139.781 92.9667 138.833L100.967 136.208C102.5 135.708 104.05 135.247 105.617 134.825ZM111.533 123.533L109.108 121.142L105.758 121.908C102.836 122.575 99.9361 123.383 97.0583 124.333L89.0584 126.958C84.0885 128.574 79.6077 131.419 76.0324 135.231C72.4571 139.042 69.9033 143.695 68.6084 148.758L68.525 149.092L65.125 173.675C63.7834 183.375 68.975 193.617 79.6584 196.158C89.4084 198.483 105.092 200.917 127.992 200.917C150.9 200.917 166.583 198.483 176.333 196.167C187.017 193.617 192.217 183.375 190.875 173.683L187.467 149.1L187.383 148.767C186.089 143.701 183.534 139.046 179.957 135.233C176.381 131.42 171.897 128.573 166.925 126.958L158.933 124.333C156.061 123.389 153.161 122.583 150.233 121.917L146.883 121.142L144.467 123.525L144.458 123.533C144.136 123.827 143.803 124.108 143.458 124.375C142.384 125.229 141.241 125.992 140.042 126.658C136.378 128.776 132.231 129.915 128 129.967C123.769 129.915 119.622 128.776 115.958 126.658C114.384 125.769 112.896 124.722 111.533 123.533Z" fill="#EBF1FF"/>
</svg>
