<?xml version="1.0" encoding="UTF-8" standalone="no"?>
<!-- Created with Inkscape (http://www.inkscape.org/) -->

<svg
   version="1.1"
   id="svg1"
   width="3908"
   height="1996"
   viewBox="0 0 3908 1996"
   sodipodi:docname="signature.svg"
   inkscape:version="1.4.2 (f4327f4, 2025-05-13)"
   xmlns:inkscape="http://www.inkscape.org/namespaces/inkscape"
   xmlns:sodipodi="http://sodipodi.sourceforge.net/DTD/sodipodi-0.dtd"
   xmlns="http://www.w3.org/2000/svg"
   xmlns:svg="http://www.w3.org/2000/svg">
  <defs
     id="defs1" />
  <sodipodi:namedview
     id="namedview1"
     pagecolor="#505050"
     bordercolor="#eeeeee"
     borderopacity="1"
     inkscape:showpageshadow="0"
     inkscape:pageopacity="0"
     inkscape:pagecheckerboard="0"
     inkscape:deskcolor="#505050"
     inkscape:zoom="0.70710678"
     inkscape:cx="2066.166"
     inkscape:cy="990.6566"
     inkscape:window-width="3840"
     inkscape:window-height="2071"
     inkscape:window-x="-9"
     inkscape:window-y="-9"
     inkscape:window-maximized="1"
     inkscape:current-layer="svg1" />
  <g
     inkscape:groupmode="layer"
     inkscape:label="Image"
     id="g1">
    <path
       style="fill:none;stroke:#e5e5e5;stroke-width:24;stroke-dasharray:none;stroke-opacity:1;stroke-linejoin:round"
       d="m 1859.6908,524.67323 c 0,0 35.3554,-59.39697 107.4803,-65.05382"
       id="path2" />
    <path
       style="fill:none;stroke:#e5e5e5;stroke-width:24;stroke-linecap:round;stroke-linejoin:round;stroke-miterlimit:0;stroke-dasharray:none;stroke-opacity:1"
       d="m 1529.4449,86.831034 c 0,0 -1.5234,-80.7376281 -245.2596,-70.074168 -243.7362,10.66346 -485.94913,44.177193 -709.8818,129.484874 -223.93266,85.30768 -290.96013,172.13872 -269.63321,255.92305 21.32692,83.78433 284.86673,281.82002 354.9409,405.21149 70.07416,123.39147 158.42855,304.67032 92.92444,449.38872 -65.50412,144.7184 -248.30629,310.7637 -417.39831,318.3804 C 166.04531,1582.7622 63.980762,1558.3886 27.420326,1399.96 -9.1401088,1241.5314 164.52196,1136.4202 357.98759,1108.9999 c 193.46564,-27.4204 347.32414,-86.8311 606.29389,-31.9904 258.96972,54.8406 444.81862,102.0645 648.94772,9.1401 204.1291,-92.92444 263.5398,-161.47526 243.7362,-225.45602 -19.8035,-63.98076 -82.2609,-140.14834 -149.2884,222.40932 -67.0275,362.5576 370.1744,0 388.4546,-16.7569 18.2802,-16.7568 -25.897,102.0646 161.4753,18.2802 187.3722,-83.7843 525.5562,-318.38041 539.2664,-353.4175 13.7102,-35.03708 -146.2417,-27.42032 -294.0068,263.53981 -147.7651,290.96009 280.2966,94.44779 566.6867,-117.29806 286.3901,-211.74586 804.3296,-586.49032 816.5164,-723.59195 11.3632,-127.836662 -495.1217,472.75763 -705.6431,787.91434 -15.2576,22.84101 -28.9605,44.18272 -40.7991,63.63916 0,0 -330.9993,401.7305 -417.2663,643.561 -86.267,241.8305 -101.8234,526.0875 171.1198,151.3209 272.9433,-374.7666 162.6346,-473.7616 281.4285,-493.5606 118.794,-19.799 138.593,-8.4852 137.1788,-36.7695 -1.4142,-28.2843 19.799,-94.7523 -172.5341,-104.6518 -192.333,-9.8995 -371.9382,-39.598 -428.5067,-4.2427 -56.5685,35.3554 182.4335,-4.2426 285.6711,-48.0832"
       id="path1"
       sodipodi:nodetypes="cssssssssssssssssssscssssssc" />
  </g>
</svg>
