<svg width="256" height="256" viewBox="0 0 256 256" fill="none" xmlns="http://www.w3.org/2000/svg">
<rect width="256" height="256" rx="32" fill="#E2ECFD"/>
<path d="M128 44.6667C138.943 44.6667 149.78 46.8222 159.89 51.01C170.001 55.1979 179.187 61.3362 186.926 69.0744C194.664 76.8127 200.802 85.9992 204.99 96.1097C209.178 106.22 211.333 117.057 211.333 128C211.333 150.101 202.554 171.298 186.926 186.926C171.297 202.554 150.101 211.333 128 211.333C89.6666 211.333 57.5833 185.667 47.6666 150.75L79.5833 163.917C80.6769 169.255 83.5791 174.052 87.7997 177.498C92.0204 180.945 97.301 182.829 102.75 182.833C115.75 182.833 126.333 172.25 126.333 159.25V158.167L154.667 137.917H155.333C172.667 137.917 186.75 123.833 186.75 106.5C186.75 89.1667 172.667 75.0833 155.333 75.0833C138 75.0833 123.833 89.1667 123.833 106.5V106.917L104.083 135.75L102.75 135.667C97.8333 135.667 93.25 137.167 89.5 139.75L44.6666 121.333C48.25 78.4167 84.0833 44.6667 128 44.6667ZM97 171.083C103.667 173.833 111.333 170.75 114.083 164.083C116.833 157.417 113.667 149.833 107.167 147.083L96.5 142.667C100.583 141.167 105.167 141.083 109.5 142.917C113.917 144.667 117.333 148.083 119.083 152.5C120.917 156.833 120.917 161.667 119.083 166C115.5 175 104.917 179.333 95.9166 175.583C91.75 173.833 88.5833 170.667 86.8333 166.917L97 171.083ZM176.333 106.5C176.333 118.083 166.917 127.5 155.333 127.5C149.778 127.478 144.458 125.256 140.538 121.32C136.618 117.384 134.417 112.055 134.417 106.5C134.406 103.75 134.939 101.025 135.986 98.4825C137.034 95.9398 138.574 93.6296 140.518 91.6851C142.463 89.7406 144.773 88.2003 147.316 87.1531C149.859 86.1058 152.583 85.5723 155.333 85.5833C160.888 85.5833 166.217 87.7843 170.153 91.7046C174.089 95.6249 176.311 100.945 176.333 106.5ZM139.667 106.5C139.667 115.167 146.667 122.25 155.417 122.25C164.083 122.25 171.083 115.167 171.083 106.5C171.083 97.8333 164.083 90.75 155.417 90.75C146.667 90.75 139.667 97.8333 139.667 106.5Z" fill="#2C1A45"/>
</svg>
