<svg width="256" height="256" viewBox="0 0 256 256" fill="none" xmlns="http://www.w3.org/2000/svg">
<rect width="256" height="256" rx="32" fill="#B0EEEC"/>
<path d="M128 44.6667C148.333 44.6667 165.5 59.25 168.917 78.5833L175.917 78C198.833 78 217.583 96.6667 217.583 119.667C217.582 127.126 215.579 134.447 211.782 140.868C207.986 147.288 202.535 152.572 196 156.167C199.381 162.524 201.063 169.647 200.881 176.845C200.7 184.043 198.662 191.072 194.965 197.251C191.268 203.429 186.037 208.548 179.779 212.11C173.522 215.673 166.45 217.558 159.25 217.583C153.34 217.586 147.498 216.332 142.11 213.904C136.722 211.476 131.912 207.929 128 203.5C124.088 207.929 119.278 211.476 113.89 213.904C108.502 216.332 102.66 217.586 96.75 217.583C73.8333 217.583 55.0833 198.833 55.0833 175.917C55.0833 168.75 56.9166 162.083 60 156.167C53.4647 152.572 48.0144 147.288 44.2179 140.868C40.4214 134.447 38.4179 127.126 38.4166 119.667C38.4166 96.6667 57.1666 78 80.0833 78L87.0833 78.5833C90.5 59.25 107.667 44.6667 128 44.6667ZM84.25 196.75L141.833 169.667H169.667C174.25 169.667 178 165.917 178 161.333V103C178 98.4167 174.25 94.6667 169.667 94.6667H86.3333C81.75 94.6667 78 98.4167 78 103V161.333C78 165.917 81.75 169.667 86.3333 169.667H92.75L84.25 196.75Z" fill="#053943"/>
</svg>
