<svg width="256" height="256" viewBox="0 0 256 256" fill="none" xmlns="http://www.w3.org/2000/svg">
<rect width="256" height="256" fill="#B0EEEC"/>
<path d="M128 44.6667C148.333 44.6667 165.5 59.25 168.917 78.5833L175.917 78C198.833 78 217.583 96.6667 217.583 119.667C217.582 127.126 215.579 134.447 211.782 140.868C207.986 147.288 202.535 152.572 196 156.167C199.381 162.524 201.063 169.647 200.881 176.845C200.7 184.043 198.662 191.072 194.965 197.251C191.268 203.429 186.037 208.548 179.779 212.11C173.522 215.673 166.45 217.558 159.25 217.583C153.34 217.586 147.498 216.332 142.11 213.904C136.722 211.476 131.912 207.929 128 203.5C124.088 207.929 119.278 211.476 113.89 213.904C108.503 216.332 102.66 217.586 96.7501 217.583C73.8334 217.583 55.0834 198.833 55.0834 175.917C55.0834 168.75 56.9167 162.083 60.0001 156.167C53.4649 152.572 48.0145 147.288 44.218 140.868C40.4215 134.447 38.418 127.126 38.4167 119.667C38.4167 96.6667 57.1667 78 80.0834 78L87.0834 78.5833C90.5001 59.25 107.667 44.6667 128 44.6667ZM84.2501 196.75L141.833 169.667H169.667C174.25 169.667 178 165.917 178 161.333V103C178 98.4167 174.25 94.6667 169.667 94.6667H86.3334C81.7501 94.6667 78.0001 98.4167 78.0001 103V161.333C78.0001 165.917 81.7501 169.667 86.3334 169.667H92.7501L84.2501 196.75Z" fill="#053943"/>
</svg>
