<?xml version="1.0" encoding="utf-8"?>
<!-- Generator: Adobe Illustrator 17.1.0, SVG Export Plug-In . SVG Version: 6.00 Build 0)  -->
<!DOCTYPE svg PUBLIC "-//W3C//DTD SVG 1.1//EN" "http://www.w3.org/Graphics/SVG/1.1/DTD/svg11.dtd">
<svg version="1.1" xmlns="http://www.w3.org/2000/svg" xmlns:xlink="http://www.w3.org/1999/xlink" x="0px" y="0px"
	 viewBox="0 0 240 240" enable-background="new 0 0 240 240" xml:space="preserve">
<g id="Layer_2">
</g>
<g id="Layer_1">
	<g>
		<g>
			<path fill="#FFFFFF" d="M0,240h240V0H0V240z"/>
		</g>
		<g>
			<path fill="#FFFFFF" d="M120,120.2c61.2,0,110.8-49.6,110.8-110.8H9.2C9.2,70.6,58.8,120.2,120,120.2z"/>
			<path d="M5,235H235V5H5V235z M46.7,223l-20-19h-0.2v19h-7.2v-39.2h7.2v17h0.2l18.9-17h8.6l-21.5,18.5L56.1,223H46.7z M68.9,223
				H62v-28.6h6.9V223z M69.3,188.2h-7.5v-5.6h7.5V188.2z M98,198.2h-8.6v16.9c0,3.3,1.2,4.5,4.3,4.5c1.7,0,3-0.3,4.3-0.7v3.8
				c-1.6,0.4-3.9,0.7-5.8,0.7c-6.3,0-9.7-1.7-9.7-6.8v-18.4h-6.6v-3.8h6.6v-5.8l6.9-1.4v7.2H98V198.2z M120.3,223.4
				c-12.5,0-18.5-6.3-18.5-14.4c0-9.3,7.1-15,18.7-15c2.9,0,6.1,0.4,8.3,1.1l-0.3,4.3c-2.4-0.9-4.8-1.3-8-1.3
				c-6.7,0-11.5,3.2-11.5,10.9c0,6.6,4.6,10.4,11.3,10.4c3.3,0,6.1-0.7,8.4-1.5l0.3,4.3C127.1,222.8,123.4,223.4,120.3,223.4z
				 M165.3,223h-6.9v-18.5c0-4.5-2.5-6.5-6.9-6.5c-5.4,0-8.9,2.6-8.9,7.7V223h-6.9v-42.1h6.9v17.4h0.2c1.8-2.4,5.4-4.3,10.3-4.3
				c7.3,0,12.2,2.9,12.2,9.1V223z M179.8,190.4h-5.2l5.5-8.1h8.1L179.8,190.4z M221.5,223h-6.9v-18.5c0-4.5-2.5-6.5-6.9-6.5
				c-5.4,0-8.9,2.6-8.9,7.7V223H192v-22.5c0-2.1-0.2-4.2-0.3-6.2h6.6l0.2,4.3h0.2c2.2-3.3,5.7-4.7,10.6-4.7c7.3,0,12.2,2.9,12.2,9.1
				V223z M230.8,9.4c0,61.2-49.6,110.8-110.8,110.8C58.8,120.2,9.2,70.6,9.2,9.4H230.8z"/>
			<polygon fill="#FFFFFF" points="54.3,183.8 45.6,183.8 26.7,200.8 26.5,200.8 26.5,183.8 19.3,183.8 19.3,223 26.5,223 26.5,204 
				26.7,204 46.7,223 56.1,223 32.8,202.3 			"/>
			<rect x="62" y="194.4" fill="#FFFFFF" width="6.9" height="28.6"/>
			<rect x="61.7" y="182.6" fill="#FFFFFF" width="7.5" height="5.6"/>
			<path fill="#FFFFFF" d="M89.4,187.1l-6.9,1.4v5.8h-6.6v3.8h6.6v18.4c0,5.1,3.4,6.8,9.7,6.8c1.9,0,4.2-0.3,5.8-0.7v-3.8
				c-1.3,0.4-2.5,0.7-4.3,0.7c-3.1,0-4.3-1.2-4.3-4.5v-16.9H98v-3.8h-8.6V187.1z"/>
			<path fill="#FFFFFF" d="M120.3,219.4c-6.7,0-11.3-3.8-11.3-10.4c0-7.7,4.8-10.9,11.5-10.9c3.2,0,5.6,0.4,8,1.3l0.3-4.3
				c-2.2-0.7-5.4-1.1-8.3-1.1c-11.6,0-18.7,5.7-18.7,15c0,8.1,6.1,14.4,18.5,14.4c3,0,6.7-0.6,8.8-1.2l-0.3-4.3
				C126.4,218.7,123.6,219.4,120.3,219.4z"/>
			<path fill="#FFFFFF" d="M153.1,194c-4.8,0-8.4,1.9-10.3,4.3h-0.2v-17.4h-6.9V223h6.9v-17.2c0-5.2,3.4-7.7,8.9-7.7
				c4.4,0,6.9,2,6.9,6.5V223h6.9v-19.9C165.3,196.8,160.4,194,153.1,194z"/>
			<polygon fill="#FFFFFF" points="174.5,190.4 179.8,190.4 188.1,182.3 180,182.3 			"/>
			<path fill="#FFFFFF" d="M209.3,194c-4.8,0-8.4,1.4-10.6,4.7h-0.2l-0.2-4.3h-6.6c0.1,2,0.3,4.1,0.3,6.2V223h6.9v-17.2
				c0-5.2,3.4-7.7,8.9-7.7c4.4,0,6.9,2,6.9,6.5V223h6.9v-19.9C221.5,196.8,216.6,194,209.3,194z"/>
		</g>
	</g>
</g>
</svg>
