<?xml version="1.0" encoding="utf-8"?>
<!-- Generator: Adobe Illustrator 27.1.1, SVG Export Plug-In . SVG Version: 6.00 Build 0)  -->
<svg version="1.1" id="Layer_1" xmlns="http://www.w3.org/2000/svg" xmlns:xlink="http://www.w3.org/1999/xlink" x="0px" y="0px"
	 viewBox="0 0 500.9 140.2" style="enable-background:new 0 0 500.9 140.2;" xml:space="preserve">
<style type="text/css">
	.st0{fill:#EB0055;}
</style>
<g>
	<path class="st0" d="M217.4,138.9h-19.1l-29.8-75.8h21.4l17.9,51h0.2c0,0,9.9-29,13.2-37.7c1.6-4.3,4-8.9,12.8-8.9
		c8.8,0,11.4,0,11.4,0L217.4,138.9z"/>
	<path class="st0" d="M87.7,101c0-22.7,16.2-39.2,40.3-39.2c23.6,0,40.4,15.9,40.4,39.2c0,23.3-16.8,39.2-40.4,39.2
		C103.9,140.2,87.7,123.7,87.7,101z M147.7,101c0-12.4-8.4-21-19.7-21c-11.8,0-19.7,9-19.7,21c0,11.8,8.2,21,19.7,21
		C139,122,147.7,113.3,147.7,101z"/>
	<path class="st0" d="M283,101c0-23.3,16.5-39.2,39.9-39.2c12.1,0,24.6,4.8,32.2,14.5l-13.7,11.8c-4-4.7-9.9-8.1-17.7-8.1
		c-12.1,0-20.2,8.5-20.2,20.8c0,12.4,8.4,21.1,20.4,21.1c8.1,0,14.1-3.7,17.7-7.8l13.8,12.3c-6.5,7.6-18.2,13.7-33.4,13.7
		C299.5,140.2,283,124.3,283,101z"/>
	<path class="st0" d="M434,107.5h-53.3c2.5,9,9.6,14.6,19.4,14.6c8.1,0.2,14-3.4,18.2-8.5l13.2,12.3c-6.5,8.2-17.6,14.3-32.8,14.3
		c-22.2,0-39-15.5-39-39.3c0-23,16-39,37.6-39c22.2,0,37.1,16.2,37.1,38.4C434.5,102.7,434.5,106.3,434,107.5z M380.9,92.9h33.4
		c-2-7.9-7.5-13.2-16.3-13.2C389.7,79.7,383.2,84.2,380.9,92.9z"/>
	<path class="st0" d="M446.3,47.7h20.4v91.2h-20.4V47.7z"/>
	<path class="st0" d="M480.6,47.7h20.4v91.2h-20.4V47.7z"/>
	<path class="st0" d="M77.2,47.7V139H55L21.7,88.6V139H0V47.7h21.7l33.7,54v-54H77.2z"/>
	<path class="st0" d="M249.3,89.9v49.1h20.4V90.3c-0.4,0.2-4.5,2.6-9.8,2.6C255.3,92.9,250.8,90.9,249.3,89.9z"/>
	<path class="st0" d="M264.1,42.3c9.5,15.3-4.5,21.8-7.6,23.1c-3,1.3-4.6,4.4-4.6,7.3c0,4.4,3.6,8,8,8c7.5,0,14.1-11.1,14.1-19.6
		C274,49.8,264.1,42.3,264.1,42.3z"/>
	<path class="st0" d="M291.6,41.6C291.6,21.7,274.3,0,260,0c-8.4,0-15.1,6.8-15.1,15.1c0,7.1,4.9,13.1,11.6,14.7
		c6,1.5,31.4,5.8,25.9,41.3C282.4,71.2,291.6,59.2,291.6,41.6z"/>
	<path class="st0" d="M207.5,75.9c-2.8-32.3,21.1-41.6,34.9-41.6c10.2,0,14.9,6.4,14.9,12.8c0,8.8-9.1,14.9-17,11.6
		C230.6,54.6,212.8,52.6,207.5,75.9z"/>
</g>
</svg>
