<svg width="388" height="478" viewBox="0 0 388 478" fill="none" xmlns="http://www.w3.org/2000/svg">
<path d="M136.052 135.123L105.739 151.29L103.719 126.366L135.379 122.998L136.052 135.123ZM58.5861 209.895C59.2784 218.633 57.9312 232.124 53.2159 238.841L39.0699 233.453C43.7852 226.735 46.4797 217.304 46.4797 209.221L58.5861 209.895ZM339.466 358.746C378.517 197.769 332.73 69.7819 208.129 54.9623C208.803 61.7172 208.803 67.0875 208.803 72.4764C208.803 80.5598 208.129 87.296 208.129 87.296L188.594 83.9279C189.268 77.1918 190.615 31.4044 174.448 21.3001C174.448 21.3001 174.448 45.5317 169.06 69.7819L150.872 66.4325C150.872 49.5921 143.462 42.8559 133.358 38.1406L138.073 71.1479L126.622 87.9697L132.011 103.463L96.3087 115.588L86.2045 144.554L23.5766 230.758L47.1533 259.05L73.4244 236.839L79.487 240.862V273.87H93.6143C99.6955 250.293 119.212 222.675 137.399 209.221L127.295 197.096L142.115 184.278L156.261 201.811L206.782 201.119C214.192 184.971 218.907 165.436 218.907 142.533H238.442C238.442 219.325 200.046 249.619 152.219 296.773C134.705 314.287 119.212 333.148 117.191 358.746H339.466ZM387.948 377.588H70.0376V358.072H96.9823C101.716 294.752 162.323 271.175 196.004 219.999H156.934C138.073 226.735 109.781 268.481 109.781 292.731H60.6257L61.2993 272.522L45.1324 285.995L2.02086 236.147C2.02086 236.147 0 233.453 0 231.432C0 229.43 0.673618 228.064 0.673618 228.064L68.7091 135.797L80.8155 99.4212L99.0219 92.685L117.865 66.4325L111.128 20.6265C129.316 13.8903 146.83 19.9529 155.587 28.6912C156.261 15.2376 154.914 0.417937 154.914 0.417937C187.247 -2.95015 198.699 14.564 204.088 34.0989C212.826 34.7725 220.928 36.101 228.338 37.4669C229.059 35.3447 230.415 33.4955 232.223 32.17C234.03 30.8446 236.201 30.1069 238.442 30.0571C239.775 30.0343 241.098 30.2802 242.333 30.7801C243.568 31.2801 244.69 32.0238 245.631 32.9669C246.573 33.91 247.314 35.0331 247.812 36.2693C248.31 37.5054 248.553 38.8291 248.528 40.1614V42.8559C262.443 47.6282 275.775 53.9553 288.271 61.7172C289.182 60.4294 290.396 59.3855 291.806 58.6774C293.215 57.9693 294.778 57.6188 296.355 57.6568C297.689 57.6314 299.014 57.8754 300.251 58.3742C301.489 58.873 302.613 59.6163 303.556 60.5597C304.499 61.5031 305.243 62.6271 305.742 63.8645C306.24 65.1019 306.484 66.4272 306.459 67.7611C306.459 70.4556 305.785 72.4764 304.438 73.8423C315.89 83.273 325.32 94.7058 334.077 106.831C335.425 106.157 337.445 105.484 338.793 105.484C344.855 105.484 349.571 110.199 349.571 115.588C349.571 119.63 347.55 122.998 344.182 124.345C350.918 136.47 356.288 149.943 360.348 164.089C361.022 163.415 362.369 163.415 363.043 163.415C369.106 163.415 373.128 168.13 373.128 173.519C373.128 178.908 369.779 182.95 365.737 183.623C368.455 197.887 370.478 212.275 371.8 226.735C377.844 226.735 382.559 231.432 382.559 236.839C382.559 242.883 377.844 246.925 372.474 247.598C372.474 261.744 371.8 277.238 370.453 292.057C375.823 292.731 379.883 297.446 379.883 302.835C379.883 308.224 375.168 312.939 369.105 312.939H368.413C365.77 328.035 362.857 343.081 359.675 358.072H387.948V377.588Z" fill="#0C2850"/>
<path d="M70.052 477.28H387.958V438.216H70.052V477.28Z" fill="#F36717"/>
</svg>
