<svg width="512" height="512" viewBox="0 0 512 512" fill="none" xmlns="http://www.w3.org/2000/svg">
<g clip-path="url(#clip0_30_177)">
<rect width="512" height="512" fill="#968FF8"/>
<ellipse cx="144.56" cy="321.963" rx="74.5603" ry="125.871" fill="#2B303D"/>
<ellipse cx="368.56" cy="321.963" rx="74.5603" ry="125.871" fill="#2B303D"/>
<ellipse cx="254.397" cy="368.463" rx="157.138" ry="186.802" fill="#1A1D24"/>
<path d="M167.009 115.118C140.552 133.557 110.621 186.471 104.474 216.135C104.474 216.135 146.164 282.678 256 282.678C365.836 282.678 409 221.266 409 216.135C409 209.721 393.897 140.773 365.836 121.532C337.776 102.29 311.319 91.8677 259.207 91.066C207.095 90.2643 193.465 96.6781 167.009 115.118Z" fill="#1A1D24"/>
<path d="M258.736 232.014C258.214 234.003 255.389 234.003 254.867 232.014L247.045 202.207C246.712 200.939 247.669 199.7 248.98 199.7L264.624 199.7C265.935 199.7 266.891 200.939 266.558 202.207L258.736 232.014Z" fill="#CBCBCE"/>
<path d="M203.08 162C216.959 162 221.986 169.702 222.773 173.951C223.299 177.67 223.246 186.062 218.835 189.887C213.321 194.667 195.473 200.325 190.476 185.106C186.814 173.951 188.375 169.171 188.113 169.171C190.476 163.631 195.256 162 203.08 162Z" fill="#CBCBCE"/>
<path d="M308.124 160.851C294.151 160.851 289.09 168.637 288.297 172.932C287.768 176.691 287.821 185.174 292.262 189.04C297.814 193.873 315.782 199.592 320.813 184.208C324.5 172.932 322.928 168.1 323.192 168.1C320.813 162.5 316 160.851 308.124 160.851Z" fill="#CBCBCE"/>
</g>
<defs>
<clipPath id="clip0_30_177">
<rect width="512" height="512" fill="white"/>
</clipPath>
</defs>
</svg>
